<?xml version="1.0" encoding="UTF-8" standalone="no"?>
<svg
   height="22.870037"
   viewBox="0 0 22.870037 22.870037"
   width="22.870037"
   version="1.1"
   id="svg1"
   sodipodi:docname="settings.svg"
   xml:space="preserve"
   inkscape:version="1.3.2 (091e20ef0f, 2023-11-25)"
   xmlns:inkscape="http://www.inkscape.org/namespaces/inkscape"
   xmlns:sodipodi="http://sodipodi.sourceforge.net/DTD/sodipodi-0.dtd"
   xmlns="http://www.w3.org/2000/svg"
   xmlns:svg="http://www.w3.org/2000/svg"><defs
     id="defs1" /><sodipodi:namedview
     id="namedview1"
     pagecolor="#505050"
     bordercolor="#eeeeee"
     borderopacity="1"
     inkscape:showpageshadow="0"
     inkscape:pageopacity="0"
     inkscape:pagecheckerboard="0"
     inkscape:deskcolor="#505050"
     inkscape:zoom="6.1015625"
     inkscape:cx="45.234315"
     inkscape:cy="42.53009"
     inkscape:window-width="1920"
     inkscape:window-height="1011"
     inkscape:window-x="0"
     inkscape:window-y="0"
     inkscape:window-maximized="1"
     inkscape:current-layer="svg1" /><path
     id="path2"
     style="fill:#88b8e3;fill-opacity:1;stroke:none;stroke-width:54.6719;stroke-dashoffset:4.19833;paint-order:stroke fill markers"
     d="M 11.435547 0 A 11.435019 11.435019 0 0 0 0 11.435547 A 11.435019 11.435019 0 0 0 11.435547 22.869141 A 11.435019 11.435019 0 0 0 22.869141 11.435547 A 11.435019 11.435019 0 0 0 11.435547 0 z M 10.867188 3.5195312 L 11.998047 3.5195312 C 12.626981 3.5195312 13.130859 4.0258848 13.130859 4.6503906 L 13.130859 5.1679688 C 13.666783 5.3141294 14.185195 5.5261752 14.667969 5.8007812 L 15.03125 5.4375 C 15.474163 4.9945867 16.187948 4.9945867 16.630859 5.4375 L 17.431641 6.2402344 C 17.874553 6.6831465 17.874553 7.3949785 17.431641 7.8378906 L 17.064453 8.2011719 C 17.343488 8.6839458 17.56087 9.2023578 17.707031 9.7382812 L 18.216797 9.7382812 C 18.845731 9.7382813 19.349609 10.242682 19.349609 10.867188 L 19.349609 12.001953 C 19.349609 12.626459 18.845731 13.130859 18.216797 13.130859 L 17.703125 13.130859 C 17.561393 13.666783 17.342965 14.185195 17.068359 14.667969 L 17.431641 15.03125 C 17.874553 15.474163 17.874553 16.187948 17.431641 16.630859 L 16.630859 17.431641 C 16.187948 17.874553 15.474163 17.874553 15.03125 17.431641 L 14.667969 17.064453 C 14.185195 17.343488 13.666783 17.56087 13.130859 17.707031 L 13.130859 18.220703 C 13.130859 18.845209 12.626981 19.349609 11.998047 19.349609 L 10.867188 19.349609 C 10.242682 19.349609 9.7382812 18.845209 9.7382812 18.220703 L 9.7382812 17.703125 C 9.197929 17.561393 8.6844695 17.342965 8.1972656 17.068359 L 7.8339844 17.431641 C 7.3910723 17.874553 6.6772883 17.874553 6.234375 17.431641 L 5.4375 16.630859 C 4.9945867 16.187948 4.9945867 15.474163 5.4375 15.03125 L 5.8007812 14.667969 C 5.5217463 14.185195 5.3087927 13.666783 5.1582031 13.130859 L 4.6503906 13.130859 C 4.0258848 13.130859 3.5195312 12.626459 3.5195312 12.001953 L 3.5195312 10.867188 C 3.5195312 10.242682 4.0258848 9.7382812 4.6503906 9.7382812 L 5.1640625 9.7382812 C 5.3102233 9.2023578 5.5217463 8.6839458 5.8007812 8.2011719 L 5.4375 7.8378906 C 4.9945867 7.3949785 4.9945867 6.6831465 5.4375 6.2402344 L 6.234375 5.4375 C 6.6772883 4.9945867 7.3910723 4.9945867 7.8339844 5.4375 L 8.2011719 5.8046875 C 8.6839458 5.5256526 9.2023578 5.3102233 9.7382812 5.1640625 L 9.7382812 4.6503906 C 9.7382813 4.0258848 10.242682 3.5195312 10.867188 3.5195312 z M 11.453125 8.0292969 C 9.5751776 8.0292969 8.0507812 9.5517397 8.0507812 11.429688 C 8.0507812 13.307635 9.5751776 14.832031 11.453125 14.832031 C 13.335501 14.832031 14.853516 13.307635 14.853516 11.429688 C 14.853516 9.5517397 13.335501 8.0292969 11.453125 8.0292969 z " /></svg>
