<?xml version="1.0" encoding="UTF-8" standalone="no"?>
<svg
   height="70.828949mm"
   viewBox="0 0 1419.0816 267.69997"
   width="375.46533mm"
   version="1.1"
   id="svg1"
   xml:space="preserve"
   xmlns="http://www.w3.org/2000/svg"
   xmlns:svg="http://www.w3.org/2000/svg"><rect
     style="display:none;opacity:1;fill:#07121e;fill-opacity:1;stroke:none;stroke-width:10.9941;stroke-dasharray:none;stroke-dashoffset:4.19833;stroke-opacity:1;paint-order:stroke fill markers"
     id="rect6"
     width="1901.8789"
     height="618.32471"
     x="-247.67439"
     y="-168.39668"
     ry="0" /><path
     id="path7"
     style="font-family:'Readex Pro';-inkscape-font-specification:'Readex Pro';opacity:1;fill:#88b8e3;fill-opacity:1;stroke-width:576.957;stroke-dashoffset:4.19833;paint-order:stroke fill markers"
     d="M 31.71951,19.6438 0.01059,34.30365 31.71951,53.94671 h 64.63334 l -31.70791,170.8661 31.70791,19.65194 h 35.64497 V 53.94671 h 94.05117 V 19.6438 L 194.08944,0.02049 Z m 603.44133,1.55678 -31.68555,14.58841 31.68555,19.71451 h 64.63336 l -31.70696,170.77933 31.70696,19.68502 h 35.64495 V 55.5035 h 94.0512 V 21.20058 L 797.74705,1.55553 Z m 479.15776,24.93644 -31.8921,-19.4442 -129.00505,65.57006 0.2144,104.25079 c 0,0 11.0494,1.11338 -0.5695,1.40528 -11.6188,0.29189 -26.5903,9.1239 -34.3566,20.39922 -7.7662,11.27536 -39.1501,10.50251 -29.3386,20.89892 6.7302,7.13141 43.7726,29.13935 67.3994,28.36799 12.9962,-0.42429 21.8404,-8.972 28.5945,-15.1172 4.1878,-3.81025 7.8873,-14.58306 8.0099,-23.63965 0.2006,-14.81291 0,-93.08942 0,-93.08942 l 84.65695,-30.61331 0.055,80.20117 c 0,0 9.3863,-8.82691 -1.8187,-8.82691 -11.2048,0 -25.1134,6.96569 -33.6586,16.80252 -8.5451,9.83684 -41.2762,18.75749 -37.6961,23.17765 5.3938,6.65918 29.3194,24.32562 45.158,28.7867 15.8378,4.46108 27.3089,2.1292 39.3479,-3.16725 10.6142,-4.66965 16.7098,-11.65895 21.893,-22.03211 4.3035,-8.61259 3.0062,-28.71997 3.0062,-28.71997 z M 209.73579,44.12985 c -2.75952,0.008 -5.21687,0.83047 -6.92501,1.93254 -2.73299,1.76338 -4.07984,4.29458 -4.07984,4.29458 l -0.10744,0.16106 0.78125,25.76045 c -0.32669,0.2881 -0.5206,0.51807 -1.34205,1.07365 -1.24225,0.84021 -2.81804,1.46847 -3.32829,1.50309 -0.21714,0.0148 -0.18113,-0.0105 -0.37579,0 0.0726,-3.28063 9.07254,22.73531 6.67451,15.99731 -1.70143,-4.78066 -4.55947,-9.8375 -9.39438,-13.68895 -4.83493,-3.85147 -2.22107,28.77151 -3.38335,16.03934 -0.44548,-4.88003 -14.0076,-33.14002 -36.51842,-39.91245 -8.69324,-2.61538 -14.37604,49.86098 -14.37091,50.07001 -0.0207,0.2589 -26.66156,-4.99732 -23.63577,3.41227 6.00982,16.70312 22.31682,26.17221 43.23456,25.06349 15.58839,-0.82625 17.22746,-9.4238 7.11931,-4.82498 l -24.06295,73.44847 c 0,0 -1.67454,3.60565 -1.71783,8.15969 -0.0216,2.27701 0.33936,4.97137 1.82518,7.56918 1.48583,2.59782 32.99047,21.33696 36.3718,22.61201 3.32623,1.25426 6.69887,1.33413 9.50174,0.42945 2.80289,-0.90468 4.8921,-2.65711 6.33451,-4.34825 2.59631,-3.04407 3.58167,-6.18719 3.75775,-6.81765 L 262.96825,71.74242 c 0,0 -13.10787,2.58066 -13.29911,-1.10055 -0.19133,-3.68134 -29.22796,-23.50835 -34.72618,-25.54574 -1.79987,-0.66695 -3.55147,-0.97126 -5.20717,-0.96628 z M 596.60801,67.5739 c 12.30476,3.35204 -22.76297,2.04715 -33.75705,6.66468 -10.77423,4.39764 -25.12784,-0.0538 -33.04357,8.30174 -7.69588,8.13563 -15.80848,23.60739 -20.20612,34.82137 -3.61759,9.22485 1.13665,24.9841 0.64114,35.52127 l -0.16216,-12.3469 c -0.20339,-16.0501 -0.91691,-29.43374 -5.31453,-40.20794 C 500.58797,89.5539 495.0701,83.26371 486.4947,77.98654 478.13918,72.70936 467.0609,65.22263 455.83506,58.72025 c -10.25904,-5.94238 -11.09821,1.59664 -19.60842,-2.94006 -5.7067,-3.04217 -12.6606,20.25481 -18.15764,23.77292 -5.49705,3.51812 -9.97037,-11.77347 -14.36801,-7.15595 -3.93608,4.14325 -13.21555,-7.54546 -15.59018,-2.8167 -14.5298,12.61992 -20.38116,5.8519 -23.35245,2.4251 -5.35882,-6.18035 -14.24263,-11.97117 -21.71862,-15.2694 -7.47597,-3.29823 -16.14117,-4.93876 -26.03583,-4.93876 -6.81635,0 10.659,17.71413 4.06253,20.13284 -6.37658,2.41871 -12.07704,-2.88621 -17.79401,1.29156 -5.49703,3.95786 -6.87459,-3.01533 -10.83247,2.26183 -0.75997,1.07297 -1.30803,2.18347 -1.98636,3.27462 l -13.06049,-0.71436 -23.15139,-26.32177 -33.49297,173.08495 30.30201,20.55358 h 34.30292 V 141.10988 c 0,-5.71694 2.53922,-11.89475 4.73813,-16.73216 2.19882,-5.05727 5.27546,-9.31192 9.23334,-12.83003 3.95788,-3.738 8.57286,-6.61022 13.84999,-8.58915 5.27718,-2.19882 10.96792,-3.3283 17.12462,-3.3283 10.99412,1e-5 19.35265,3.64139 25.06959,10.89749 5.93679,7.2561 8.91123,17.71771 8.91123,31.35038 l -31.64607,82.87504 31.64607,19.7116 h 34.3029 v -103.6066 c 0,-5.93681 1.12938,-11.32093 3.32832,-16.15833 2.19882,-5.05729 5.27546,-9.41414 9.23334,-13.15213 3.95785,-3.738 8.57282,-6.61022 13.84999,-8.58915 5.49706,-2.19882 11.29003,-3.3283 17.44669,-3.3283 11.87364,0 20.59249,3.53917 26.08955,10.5754 5.71693,6.81633 8.53546,17.58458 8.53546,32.31666 l -31.69012,82.26753 31.69012,19.67492 h 34.30291 l -1.01997,-81.3285 c 0.904,14.62242 -9.44172,32.47594 -2.30538,44.70966 14.93086,10.881 29.10412,22.41294 44.10269,29.80705 13.85255,7.47599 33.40653,10.20162 41.67334,10.32713 9.96292,0.15127 24.02,-1.31652 32.37549,-3.51534 8.57541,-2.4187 16.57365,-5.65122 24.04962,-9.60911 7.69588,-3.95788 16.57147,-8.57284 21.84865,-13.85 l -18.41956,-24.21465 -32.96026,-18.66175 c -12.5525,4.33015 -7.36224,38.63551 -15.93763,38.63551 -12.0935,0 -22.75951,-2.46336 -31.99457,-7.30078 -9.23505,-4.8374 -16.41558,-11.65762 -21.47287,-20.4529 -3.82378,-6.81627 -7.12892,-14.50726 -8.53547,-23.08334 h 133.88335 l 0.32213,-14.49418 c 0.21988,-12.09352 -1.62521,-23.22207 -5.58292,-33.33664 -3.73799,-10.33446 -9.27801,-19.20405 -16.53412,-26.68004 -7.03624,-7.47599 -46.29084,-33.17617 -57.44198,-37.35393 -9.67482,-4.39764 -23.95378,7.20681 -13.13411,10.15428 z m 613.62869,-0.83563 c -12.7532,0 -24.7906,2.88278 -35.7846,7.50031 -10.7743,4.39764 -28.0757,4.19093 -35.9914,12.54645 -7.6959,8.13563 -18.7866,17.17639 -23.1844,28.39037 -4.3976,11.21398 6.4061,30.89252 6.4061,44.52519 0,17.1508 -6.3064,23.14211 1.3895,36.33502 0.8239,0.90678 -6.0394,10.20178 7.0368,18.80938 16.9864,11.18155 51.9108,31.86687 82.9409,32.89438 8.1355,0 16.3382,-1.0758 24.6937,-3.27462 8.5754,-2.4187 16.6274,-5.65122 24.1034,-9.60911 7.6958,-3.95788 14.1557,-8.57284 19.4329,-13.85 l -17.5201,-25.98497 -31.3298,-17.63136 c 0,0 -7.9256,37.44008 -16.501,37.44008 -12.0935,0 -22.3641,-0.528 -31.5992,-5.36542 -9.235,-4.8374 -16.3619,-11.65762 -21.4192,-20.4529 -3.8238,-6.81651 -6.2071,-14.50691 -7.1396,-23.08334 h 132.4339 l 0.3758,-14.49418 c 0.2198,-12.09352 -1.6789,-23.22207 -5.6367,-33.33664 -3.7381,-10.33446 -9.2243,-19.20405 -16.4805,-26.68004 -7.0362,-7.47599 -36.5755,-31.68263 -62.2555,-39.36209 -10.182,-3.04485 -5.1852,14.68349 6.0288,14.68349 z m 115.4921,-11.08924 c -11.6302,-0.74119 -10.8759,6.76806 -20.3308,11.16572 -9.2351,4.17776 -16.62,10.0244 -22.117,17.50038 -5.4971,7.47599 9.1108,23.4628 9.1108,33.1376 0,5.93682 -26.27,-2.73897 -24.7308,2.31832 1.539,4.8374 4.0024,9.35015 7.3007,13.5279 15.2013,15.94515 29.498,24.63596 44.6823,29.50706 8.1357,4.17776 19.6891,6.74849 32.4422,10.04672 7.4759,1.97895 13.5271,3.97979 18.1446,5.95873 4.8375,1.75905 8.3765,3.39958 10.5753,4.93875 4.1778,3.51812 -4.9749,3.44851 -4.9749,9.16544 0,3.29823 -0.6673,6.37487 -1.9864,9.23333 -1.3194,2.6386 -3.3201,4.94607 -5.9587,6.925 -2.4187,1.97894 -5.3932,3.51726 -8.9113,4.61667 -3.2982,0.87953 -2.9601,3.03248 -6.918,3.03248 -9.8946,0 -11.4879,1.3536 -19.4036,-1.94462 -7.6956,-3.51811 -36.7646,-17.4275 -36.7646,-17.4275 0,0 -52.0283,-10.01966 -38.7211,2.14565 32.8079,29.99255 48.3181,35.61624 59.9717,40.67352 11.6538,5.05729 24.7295,7.56919 39.2417,7.56919 11.6538,0 22.2177,-2.20526 31.6726,-6.60291 9.4549,-4.39764 16.942,-10.4487 22.439,-18.14458 5.717,-7.91575 8.5891,-16.78536 8.5891,-26.68004 0,-6.81633 -0.8712,-12.96962 -2.6303,-18.46667 -1.759,-5.49705 -5.3304,-9.94818 -9.728,-14.12595 -4.1778,-4.39763 -10.519,-8.54728 -16.1533,-12.52776 -3.9983,-2.82468 -17.3897,-12.50157 -29.2319,-17.39988 -7.476,-1.75906 -11.9834,4.80463 -16.8208,2.82568 -4.8375,-1.97893 -8.4789,-3.87757 -10.8974,-5.63663 -2.1989,-1.75906 -3.9417,-3.86212 -5.2609,-6.28081 -1.0995,-2.63858 -1.7663,-5.35491 -1.9864,-8.21337 0,-3.29823 0.6667,-6.27266 1.9864,-8.91125 1.3192,-2.63858 3.2179,-4.84385 5.6365,-6.60291 2.6387,-1.75904 5.8174,-3.09295 9.5555,-3.97247 3.7379,-0.87954 7.8904,-1.28838 12.5079,-1.28838 4.1778,0 8.7927,0.87137 13.85,2.63043 5.0573,1.75905 10.0326,4.27096 14.87,7.56918 5.0573,3.07836 9.6722,6.71973 13.8499,10.89748 l 19.433,-21.41918 c -4.6176,-5.71693 -10.3084,-10.6922 -17.1247,-14.86996 -6.8163,-4.17775 -25.8154,-20.0576 -47.1355,-26.94168 -7.9158,-2.19882 -24.5731,2.29436 -28.0728,2.07132 z m -567.68415,-3.77192 -2.1526,126.29016 c 0,14.29232 -23.19869,22.45799 -15.4733,30.85569 10.1668,11.05173 34.856,24.41033 43.8712,30.12726 9.235,5.71692 20.0033,8.58915 32.3167,8.58915 9.8946,0 19.1246,-1.84496 27.7,-5.58295 8.5754,-3.95788 15.9067,-9.23979 22.0634,-15.83625 2.9625,-3.06473 -26.9512,-3.7927 -23.5541,-1.63722 l 31.1769,19.7818 h 33.9808 V 71.28605 l -31.8229,-19.61597 -2.1579,19.61597 v 104.25078 c 0,6.1567 -1.1294,11.84745 -3.3283,17.12462 -2.1988,5.27718 -5.2754,9.78992 -9.2333,13.52791 -3.738,3.73799 -6.2176,-17.55808 -11.4947,-15.35927 -5.2772,1.97894 -11.6786,7.52967 -18.0551,7.52967 -12.7532,0 -24.1771,15.28283 -31.4332,6.48755 -7.0362,-8.79528 -10.5754,-20.74153 -10.5754,-35.91337 V 71.28605 Z M 598.49593,98.66397 c 7.47596,0 14.3984,1.64054 20.77498,4.93876 6.37659,3.29822 11.65848,7.81097 15.83625,13.5279 4.17777,5.71694 6.58745,12.23053 7.2471,19.48663 v 2.30832 h -97.64789 c 1.44078,-4.97672 3.34317,-9.48141 5.31455,-13.52791 4.17776,-8.79527 10.33102,-15.41107 18.46667,-19.80871 8.13563,-4.6175 18.13469,-6.92499 30.00834,-6.92499 z m 611.54747,0 c 7.4759,0 14.3983,1.64054 20.775,4.93876 6.3765,3.29822 11.6585,7.81097 15.8362,13.5279 4.1778,5.71694 6.5875,12.23053 7.247,19.48663 v 2.30832 h -96.7889 c 1.0412,-4.97416 2.4852,-9.48316 4.4556,-13.52791 4.1778,-8.79527 10.3311,-15.41107 18.4667,-19.80871 8.1356,-4.6175 18.1347,-6.92499 30.0084,-6.92499 z" /><path
     id="path9"
     style="opacity:1;fill:#5a9cd9;fill-opacity:1;stroke:none;stroke-width:0.4;stroke-dasharray:none;stroke-dashoffset:4.19833;stroke-opacity:1;paint-order:stroke fill markers"
     d="M 67.77957,29.52969 0.11746,34.20938 32.06473,54.1254 66.78347,53.95352 Z m 603.23828,1.54883 -67.66406,4.67969 31.74414,19.74023 34.92187,0.002 z m -477.0957,3.02539 -93.52539,0.10547 31.94726,19.91602 82.50977,-0.0859 -6.19922,-2.83203 c 0,0 6.69703,-3.87155 1.33984,-7.17969 -5.35719,-3.30814 -16.07226,-9.92383 -16.07226,-9.92383 z m 509.69922,1.66992 31.94728,19.91797 93.9336,-0.008 -31.959,-19.86328 z M 147.91433,56.07852 c -3.17858,-0.25519 -4.16555,8.75595 -4.96093,9.11719 -0.82105,0.37289 26.89453,30.20312 26.89453,30.20312 0,0 26.0849,8.31607 11.42969,-13.07421 -9.84709,-14.37251 -19.55921,-22.65346 -33.04883,-26.19336 -0.10716,-0.0281 -0.21192,-0.0445 -0.31446,-0.0527 z m 1174.16007,14.30469 -11.8945,7.11523 25.2266,22.64649 c 0,0 5.2751,-3.35085 13.5625,-4.09766 8.2874,-0.74681 11.8419,0.009 13.6172,0.33399 1.7753,0.32507 4.373,1.02734 4.373,1.02734 l -0.5351,-5.57227 z m -899.72257,4.85938 -26.49609,6.375 30.46094,20.74609 c 0,0 4.29525,-1.48788 8.33398,-2.11914 4.48962,-0.70174 7.41211,-0.57617 7.41211,-0.57617 l -4.32226,-14.66993 z m 149.05664,0 -26.49414,6.375 30.45899,20.74609 c 0,0 6.81966,-2.41409 13.50781,-3.19531 6.76782,-0.79053 16.04883,-0.0274 16.04883,-0.0274 L 591.06473,81.04141 Z m 612.16993,0 -26.4941,6.375 30.459,20.74609 c 0,0 6.8216,-2.41409 13.5098,-3.19531 6.7677,-0.79053 16.0488,-0.0274 16.0488,-0.0274 l -13.8672,-18.09961 z m -115.4843,1.98046 -106.95125,38.63672 31.9473,19.91602 84.99225,-30.55078 z m -748.25594,0.70704 -35.73437,3.6875 30.45898,20.74609 c 0,0 4.29525,-1.48788 8.33399,-2.11914 4.48961,-0.70174 7.15625,-0.64063 7.15625,-0.64063 z m -146.60742,36.08398 -56.90942,-9.18042 c 1.35033,1.05134 -7.48268,0.83383 -3.13887,7.06683 6.94599,9.9669 14.74695,17.26618 18.53291,19.22883 3.35472,1.7391 14.96638,8.01499 32.20679,3.56054 7.31234,-1.88931 9.30859,-20.67578 9.30859,-20.67578 z M 1270.135,127.44376 c 0,0 17.907,21.57832 35.7345,29.86523 17.2724,8.02894 21.8805,8.70274 35.457,13.2168 8.179,2.71944 25.4883,6.56836 25.4883,6.56836 l -17.1153,-19.60742 z m -146.7519,18.48633 32.2304,19.94726 132.7598,0.20898 -31.7696,-19.80273 z m -612.3047,0.3457 31.70117,19.66992 134.00976,0.14062 -31.76953,-19.80273 z m 605.5918,57.74414 c 0,0 32.1753,27.90392 56.7773,37.63281 20.0886,7.94396 37.422,5.85547 37.422,5.85547 l -38.1778,-20.04297 z m 143.4844,0 c 0,0 32.1753,27.90392 56.7774,37.63281 20.0884,7.94396 37.4218,5.85547 37.4218,5.85547 l -38.1777,-20.04297 z m -755.55081,0.40039 c 0,0 32.17526,27.90392 56.77734,37.63281 20.08842,7.94396 37.41992,5.85547 37.41992,5.85547 l -38.17773,-20.04297 z m -342.93164,9.50195 -21.05664,6.8125 c 0,0 2.67997,2.30651 11.34961,7.83203 8.59196,5.47602 23.00823,13.53476 23.38476,13.71875 1.21647,0.59443 5.8898,2.68347 10.67383,0.96289 4.95477,-1.78198 6.92773,-5.13085 6.92773,-5.13085 z m 586.877,2.76953 c -1e-4,0 8.008,5.48536 17.2343,11.27149 9.2264,5.78613 19.6455,11.91915 24.1797,14.33398 10.3584,5.51662 26.4102,5.49219 26.4102,5.49219 l -29.3379,-19.72656 z m 258.73425,2.65821 c 0,0 7.4253,5.76905 10.211,8.33593 2.7856,2.5669 13.3668,8.55812 23.5372,14.04883 10.1703,5.49073 24.457,6.06446 24.457,6.06446 l -40.5977,-20.69922 z m -130.93545,5.29492 -34.3164,0.24414 31.8496,19.41016 c 0.023,0.2605 12.0889,0.20822 21.9531,0.1289 1.8692,1.53433 8.1228,6.19444 22.3027,12.67969 23.6413,10.81245 36.418,10.5918 36.418,10.5918 l -40.6543,-20.24024 -11.4023,-6.60156 z m -811.71877,0.0977 31.94726,19.91601 35.44336,-0.18945 -31.70507,-19.70117 z m 156.11719,0 30.26562,20.61132 34.43555,0.0566 -30.38086,-20.66796 z m 111.69921,0 31.78125,19.70898 34.40235,0.10156 -31.76953,-19.80273 z m 112.87305,0 31.78125,19.70898 34.40235,0.10156 -31.76954,-19.80273 z m 258.39258,1.55859 -35.79297,0.24414 31.85156,19.41016 35.66405,0.0137 z" /><path
     id="text4"
     style="font-family:'Readex Pro';-inkscape-font-specification:'Readex Pro';opacity:1;fill:#ddeaf7;fill-opacity:1;stroke-width:576.957;stroke-dashoffset:4.19833;paint-order:stroke fill markers"
     d="m 0,0 v 34.30292 h 64.63333 v 190.51804 h 35.64496 V 34.30292 h 94.05117 V 0 Z M 603.44133,1.55679 V 35.8597 h 64.63334 v 190.46435 h 35.64497 V 35.8597 h 94.05121 V 1.55679 Z m 479.15767,24.93643 -143.53665,53.00673 0.2143,104.25079 c 0,0 -6.311,-5.76749 -17.9298,-5.47559 -11.6188,0.29189 -26.5903,9.1239 -34.3566,20.39922 -7.7663,11.27536 -9.018,28.89764 0.7935,39.29405 6.7302,7.13141 25.1172,10.70763 37.2672,9.97287 12.9795,-0.78492 21.8992,-8.90813 28.5946,-15.11721 4.6245,-4.28861 7.8873,-12.11822 8.0099,-21.1748 0.2006,-14.81291 0,-95.55427 0,-95.55427 l 98.67465,-33.53517 0.055,80.20116 c 0,0 -4.6313,-5.90504 -15.8362,-5.90504 -11.2049,0 -25.1136,6.96568 -33.6587,16.80252 -8.5451,9.83684 -11.49395,22.96171 -10.8438,28.61261 0.65,5.65088 2.467,18.89067 18.3055,23.35174 15.8379,4.46108 27.3091,2.12921 39.3481,-3.16724 10.6143,-4.66966 16.7097,-11.65896 21.8929,-22.03212 4.3036,-8.61259 3.0063,-28.71996 3.0063,-28.71996 z M 204.74381,38.81221 c -2.75951,0.008 -5.21687,0.83047 -6.925,1.93254 -2.73301,1.76339 -4.07984,4.29459 -4.07984,4.29459 l -0.10744,0.16106 -17.55396,40.6374 c -0.32669,0.28811 -0.5206,0.51807 -1.34206,1.07365 -1.24224,0.84021 -2.81803,1.46846 -3.3283,1.50309 -0.21712,0.0148 -0.18111,-0.0105 -0.37577,0 0.0726,-3.28063 0.68021,-6.4678 -1.71783,-13.20582 -1.70142,-4.78065 -4.55946,-9.83749 -9.39437,-13.68894 -4.83493,-3.85147 -11.57935,-6.28082 -19.96978,-6.28082 -16.44979,0 -26.06571,8.32856 -30.33043,16.48043 -4.2082,8.04386 -3.97761,15.78826 -3.97248,15.99729 -0.0207,0.25891 -0.66728,7.94871 2.73778,16.21202 3.46177,8.40081 12.30765,17.39302 27.80737,17.39302 13.88309,0 23.986,-2.43407 31.13566,-4.93876 L 137.158,201.25448 c 0,0 -1.67454,3.60565 -1.71784,8.15969 -0.0216,2.27701 0.33936,4.97137 1.82519,7.56918 1.48582,2.59784 4.13418,4.8984 7.5155,6.17346 3.32623,1.25426 6.69888,1.33413 9.50175,0.42945 2.80288,-0.90468 4.8921,-2.65711 6.3345,-4.34825 2.59632,-3.04406 3.58168,-6.18719 3.75776,-6.81763 L 217.09075,57.65466 c 0,0 1.05016,-2.97537 0.85891,-6.65659 -0.19133,-3.68134 -2.50041,-9.18218 -7.99864,-11.21957 -1.79986,-0.66695 -3.55147,-0.97126 -5.20717,-0.96629 z m 362.03259,8.85756 c -12.75316,0 -24.65087,2.30748 -35.64496,6.925 -10.77422,4.39765 -20.10635,10.80903 -28.02209,19.16454 -7.69587,8.13562 -13.74694,17.7744 -18.14459,28.98838 -3.61758,9.22485 -5.94636,19.9543 -6.44186,30.49147 l -0.16217,-12.34689 c -0.20338,-16.05011 -0.9169,-29.43375 -5.31452,-40.20795 -4.17777,-10.77422 -10.53546,-18.82614 -19.11087,-24.1033 -8.35553,-5.27718 -19.02154,-7.89129 -31.99459,-7.89129 -5.93678,0 -11.98787,0.9736 -18.14457,2.95253 -6.15671,1.97893 -11.94966,4.74894 -17.44669,8.26705 -5.49705,3.51812 -10.47232,7.56834 -14.86997,12.18585 -3.93609,4.14325 -7.01974,8.58441 -9.39439,13.31319 -2.10693,-6.38399 -4.65411,-12.25797 -8.10488,-16.96357 -4.8374,-6.59646 -10.99067,-11.51806 -18.46667,-14.81629 -7.47596,-3.29822 -16.14117,-4.93876 -26.03584,-4.93876 -6.81635,0 -13.53434,1.178 -20.13082,3.59672 -6.37658,2.41869 -12.42762,5.75344 -18.14458,9.9312 -5.49705,3.95786 -10.21422,8.57282 -14.17209,13.84999 -0.76003,1.07297 -1.30803,2.18346 -1.98625,3.27462 v -27.7 h -34.3029 v 173.1787 h 34.30291 V 120.57017 c 0,-5.71694 1.12948,-10.99884 3.32829,-15.83625 2.19883,-5.05728 5.27546,-9.31192 9.23334,-12.83003 3.95788,-3.73799 8.57284,-6.61022 13.84999,-8.58915 5.27717,-2.19882 10.96792,-3.3283 17.12462,-3.3283 10.9941,1e-5 19.35265,3.64139 25.06959,10.89749 5.93679,7.2561 8.91122,17.71771 8.91122,31.35038 v 102.58665 h 34.30291 V 121.21435 c 0,-5.9368 1.12938,-11.32093 3.3283,-16.15833 2.19882,-5.05728 5.27548,-9.41414 9.23336,-13.15213 3.95784,-3.73799 8.57281,-6.61022 13.84999,-8.58915 5.49705,-2.19882 11.29001,-3.3283 17.44669,-3.3283 11.87364,0 20.59249,3.53918 26.08954,10.57539 5.71694,6.81634 8.53547,17.58458 8.53547,32.31667 v 101.94246 h 34.30291 l -1.01997,-81.3285 c 0.90398,14.62243 4.13694,29.79942 11.27328,42.03314 7.91572,13.19292 18.68396,23.65452 32.31665,31.35039 13.85256,7.47599 20.74897,10.47405 38.54381,11.21958 9.18265,0.38471 25.35691,-1.0758 33.7124,-3.27461 8.5754,-2.41871 16.57365,-5.65124 24.04961,-9.60912 7.69587,-3.95788 16.57148,-8.57283 21.84865,-13.84999 l -19.5403,-24.04962 c -8.57541,7.47599 -16.57365,12.65569 -24.04962,15.51414 -7.25611,2.85847 -15.15213,4.29457 -23.72754,4.29457 -12.09349,0 -22.75951,-2.46335 -31.99456,-7.30077 -9.23505,-4.83739 -16.41558,-11.65762 -21.47287,-20.4529 -3.82377,-6.81628 -7.12891,-14.50726 -8.53546,-23.08334 h 133.88335 l 0.32212,-14.49418 c 0.21988,-12.09352 -1.6252,-23.22206 -5.58291,-33.33664 -3.73801,-10.33444 -9.27802,-19.20406 -16.53413,-26.68004 -7.03623,-7.47599 -15.3411,-13.32263 -25.01589,-17.50039 -9.67481,-4.39764 -20.13643,-6.60291 -31.35038,-6.60291 z m 611.5474,0 c -12.7531,0 -24.5972,2.30748 -35.5913,6.925 -10.7742,4.39765 -20.16,10.80903 -28.0758,19.16454 -7.6958,8.13562 -13.6932,17.7744 -18.0908,28.98838 -4.3976,11.21398 -6.603,23.67643 -6.603,37.3091 0,17.1508 3.8459,32.2759 11.5416,45.46881 7.9157,13.19292 18.684,23.65452 32.3167,31.35039 13.8527,7.47599 29.6984,11.21958 47.5088,11.21958 8.1356,0 16.3383,-1.0758 24.6937,-3.27461 8.5756,-2.41871 16.6274,-5.65124 24.1034,-9.60912 7.6959,-3.95788 14.1558,-8.57283 19.433,-13.84999 l -17.1246,-24.04962 c -8.5755,7.47599 -16.6274,12.65569 -24.1033,15.51414 -7.2562,2.85847 -15.1521,4.29457 -23.7277,4.29457 -12.0934,0 -22.7593,-2.46335 -31.9944,-7.30077 -9.235,-4.83739 -16.362,-11.65762 -21.4192,-20.4529 -3.824,-6.81651 -6.2073,-14.5069 -7.1398,-23.08334 h 132.4339 l 0.3758,-14.49418 c 0.2198,-12.09352 -1.6789,-23.22206 -5.6367,-33.33664 -3.7379,-10.33444 -9.2243,-19.20406 -16.4804,-26.68004 -7.0362,-7.47599 -15.3948,-13.32263 -25.0695,-17.50039 -9.6749,-4.39764 -20.1364,-6.60291 -31.3504,-6.60291 z m 144.3513,0.32211 c -11.6536,-1e-5 -22.1637,2.20525 -31.6188,6.60289 -9.2349,4.17777 -16.6199,10.02441 -22.117,17.50041 -5.4971,7.47598 -8.2671,16.03895 -8.2671,25.71375 0,5.93682 0.7691,11.42314 2.3083,16.48043 1.5392,4.8374 4.0026,9.35016 7.3007,13.52791 4.3978,5.27717 10.6532,9.99434 18.7889,14.17209 8.1356,4.17775 18.5435,7.92134 31.2966,11.21957 7.476,1.97895 13.5271,3.97979 18.1446,5.95872 4.8374,1.75906 8.3766,3.39959 10.5753,4.93876 4.1778,3.51812 6.2809,8.13308 6.2809,13.85001 0,3.29823 -0.667,6.37487 -1.9863,9.23333 -1.3195,2.63859 -3.3203,4.94607 -5.9587,6.925 -2.4188,1.97895 -5.3931,3.51726 -8.9112,4.61667 -3.2983,0.87953 -6.8861,1.34205 -10.8439,1.34205 -9.8948,0 -18.8179,-1.64054 -26.7338,-4.93876 -7.6956,-3.51812 -14.8224,-9.16034 -21.4189,-16.85621 l -23.0833,19.80873 c 7.6958,9.89469 17.3346,17.38187 28.9884,22.43914 11.6537,5.0573 24.7294,7.5692 39.2416,7.5692 11.6538,0 22.2176,-2.20526 31.6725,-6.60291 9.4549,-4.39764 16.9421,-10.44871 22.4392,-18.14458 5.7169,-7.91575 8.5891,-16.78534 8.5891,-26.68004 0,-6.81634 -0.8713,-12.96962 -2.6304,-18.46667 -1.759,-5.49704 -4.8357,-10.37011 -9.2334,-14.54786 -4.1777,-4.39764 -9.9222,-8.24345 -17.1782,-11.54167 -7.0364,-3.51812 -16.0618,-6.69697 -27.0559,-9.55543 -7.476,-1.75905 -13.6293,-3.60401 -18.4667,-5.58295 -4.8373,-1.97894 -8.4787,-3.87757 -10.8974,-5.63663 -2.1989,-1.75906 -3.9416,-3.8621 -5.2609,-6.28081 -1.0994,-2.63859 -1.7663,-5.3549 -1.9864,-8.21337 0,-3.29823 0.6668,-6.27265 1.9864,-8.91125 1.3193,-2.63858 3.2179,-4.84385 5.6366,-6.60289 2.6386,-1.75906 5.8175,-3.09297 9.5554,-3.97249 3.738,-0.87953 7.8905,-1.28838 12.5081,-1.28838 4.1777,0 8.7926,0.87137 13.8499,2.63043 5.0573,1.75906 10.0325,4.27096 14.87,7.56918 5.0573,3.07836 9.6722,6.71973 13.85,10.89748 l 19.4328,-21.41917 c -4.6176,-5.71694 -10.3082,-10.69222 -17.1245,-14.86997 -6.8165,-4.17776 -14.3036,-7.3566 -22.4392,-9.55542 -7.9158,-2.19883 -15.9677,-3.3283 -24.1033,-3.32829 z m -598.50257,3.65038 v 106.8812 c 0,14.29234 2.40964,26.59889 7.24709,36.93335 5.05733,10.33444 12.13563,18.33268 21.15083,24.0496 9.235,5.71694 20.0033,8.58916 32.3167,8.58916 9.8946,0 19.1245,-1.84496 27.6999,-5.58295 8.5755,-3.95788 15.9067,-9.23979 22.0634,-15.83624 2.9626,-3.06473 5.4672,-6.3195 7.6229,-9.71648 v 27.86106 h 33.9808 V 51.64226 h -33.9808 v 104.25078 c 0,6.15669 -1.1294,11.84744 -3.3283,17.12462 -2.1988,5.27717 -5.2755,9.78991 -9.2333,13.5279 -3.738,3.73799 -8.2508,6.71243 -13.528,8.91125 -5.2771,1.97893 -11.0701,2.95251 -17.4467,2.95251 -12.7531,0 -22.7522,-4.41053 -30.0083,-13.20582 -7.0362,-8.79527 -10.5754,-20.74151 -10.5754,-35.91336 V 51.64226 Z M 566.7764,79.02017 c 7.47597,0 14.39841,1.64054 20.775,4.93876 6.37659,3.29821 11.65848,7.81097 15.83625,13.52791 4.17775,5.71692 6.58745,12.23052 7.24708,19.48662 v 2.30832 h -97.64788 c 1.44077,-4.97672 3.34317,-9.48141 5.31455,-13.52791 4.17776,-8.79527 10.33103,-15.41107 18.46666,-19.80871 8.13565,-4.61751 18.13471,-6.92499 30.00834,-6.92499 z m 611.5474,0 c 7.476,0 14.3985,1.64054 20.775,4.93876 6.3766,3.29821 11.6585,7.81097 15.8363,13.52791 4.1777,5.71692 6.5874,12.23052 7.2471,19.48662 v 2.30832 h -96.7891 c 1.0412,-4.97416 2.4853,-9.48316 4.4557,-13.52791 4.1777,-8.79527 10.331,-15.41107 18.4667,-19.80871 8.1357,-4.61751 18.1347,-6.92499 30.0083,-6.92499 z" /><defs
     id="defs1"><rect
       x="-37.970547"
       y="-11.73426"
       width="209.83371"
       height="42.273396"
       id="rect3" /><rect
       x="0.80896276"
       y="6.0076914"
       width="31.789927"
       height="17.943853"
       id="rect2" /></defs></svg>
