<?xml version="1.0" encoding="UTF-8" standalone="no"?>
<!-- Created with Inkscape (http://www.inkscape.org/) -->

<svg
   width="119.55254mm"
   height="119.55254mm"
   viewBox="0 0 119.55254 119.55254"
   version="1.1"
   id="svg1"
   xml:space="preserve"
   inkscape:version="1.3.2 (091e20ef0f, 2023-11-25)"
   sodipodi:docname="default_album_cover.svg"
   xmlns:inkscape="http://www.inkscape.org/namespaces/inkscape"
   xmlns:sodipodi="http://sodipodi.sourceforge.net/DTD/sodipodi-0.dtd"
   xmlns="http://www.w3.org/2000/svg"
   xmlns:svg="http://www.w3.org/2000/svg"><sodipodi:namedview
     id="namedview1"
     pagecolor="#505050"
     bordercolor="#eeeeee"
     borderopacity="1"
     inkscape:showpageshadow="0"
     inkscape:pageopacity="0"
     inkscape:pagecheckerboard="0"
     inkscape:deskcolor="#505050"
     inkscape:document-units="mm"
     inkscape:zoom="1.3915123"
     inkscape:cx="237.51137"
     inkscape:cy="193.67417"
     inkscape:window-width="1920"
     inkscape:window-height="1011"
     inkscape:window-x="0"
     inkscape:window-y="0"
     inkscape:window-maximized="1"
     inkscape:current-layer="layer1" /><defs
     id="defs1" /><g
     inkscape:label="Layer 1"
     inkscape:groupmode="layer"
     id="layer1"
     transform="translate(-10.331481,-14.178863)"><rect
       style="fill:#88b8e3;fill-opacity:1;stroke-width:15;stroke-dashoffset:4.75994;stroke-opacity:0.530293;paint-order:markers fill stroke"
       id="rect1"
       width="119.55254"
       height="119.55254"
       x="10.331481"
       y="14.178863"
       ry="6.1657877" /><path
       style="opacity:1;fill:#07121e;fill-opacity:1;fill-rule:nonzero;stroke:#ddeaf7;stroke-width:13.22438352;stroke-dasharray:none;stroke-dashoffset:2.64489669;stroke-opacity:1;paint-order:stroke fill markers"
       d="m 107.55489,179.76169 c 0,0 -11.716125,-4.75844 -20.888912,-4.24072 -9.172781,0.51772 -19.533889,5.34534 -26.577315,12.06369 -7.043425,6.71831 -11.833336,13.52381 -11.351234,24.32479 0.482101,10.80102 9.826767,20.24597 24.132542,20.24355 14.305782,-0.002 23.478569,-4.43062 31.237209,-13.12923 7.75864,-8.69859 10.65472,-15.56737 10.85081,-25.35506 0.19608,-9.78768 -0.54436,-16.48907 -0.70553,-25.58992 -0.16105,-9.10086 0,-88.703664 0,-88.703664 0,0 6.64433,-4.542768 18.94388,6.170754 12.29953,10.7135 19.51105,24.01669 20.23215,37.11581 0.72109,13.09913 -2.44856,31.19363 -5.57121,37.91301 -3.1226,6.71936 1.60299,7.05899 1.60299,7.05899 0,0 2.66403,0.78782 3.60508,-2.72387 0.94105,-3.51168 7.7185,-18.36248 8.19852,-34.17373 0.48005,-15.81124 -4.49525,-31.519747 -10.6367,-42.087305 C 144.48569,78.081226 133.81506,67.156399 131.56951,63.906151 129.32395,60.65595 118.28016,49.801685 116.15426,41.55609 114.02837,33.310519 112.79787,24.366338 112.79787,24.366338 l -6.55996,-0.01481 z"
       id="path72"
       transform="matrix(0.41998178,0,0,0.41998178,26.009667,20.09152)" /></g></svg>
